<svg width="24" height="24" viewBox="0 0 24 24" fill="none" xmlns="http://www.w3.org/2000/svg">
<path fill-rule="evenodd" clip-rule="evenodd" d="M18.4 16.8V15.2C18.4 14.7584 18.0416 14.4 17.6 14.4C17.1584 14.4 16.8 14.7584 16.8 15.2V16C16.8 16.4416 16.4416 16.8 16 16.8H15.2C14.7584 16.8 14.4 17.1584 14.4 17.6C14.4 18.0416 14.7584 18.4 15.2 18.4H16.8C17.684 18.4 18.4 17.684 18.4 16.8ZM16.8 5.59998H15.2C14.7584 5.59998 14.4 5.95838 14.4 6.39998C14.4 6.84158 14.7584 7.19998 15.2 7.19998H16C16.4416 7.19998 16.8 7.55838 16.8 7.99998V8.79998C16.8 9.24158 17.1584 9.59998 17.6 9.59998C18.0416 9.59998 18.4 9.24158 18.4 8.79998V7.19998C18.4 6.31598 17.684 5.59998 16.8 5.59998ZM7.2 18.4H8.8C9.2416 18.4 9.6 18.0416 9.6 17.6C9.6 17.1584 9.2416 16.8 8.8 16.8H8C7.5584 16.8 7.2 16.4416 7.2 16V15.2C7.2 14.7584 6.8416 14.4 6.4 14.4C5.9584 14.4 5.6 14.7584 5.6 15.2V16.8C5.6 17.684 6.316 18.4 7.2 18.4ZM6.4 9.59998C6.8416 9.59998 7.2 9.24158 7.2 8.79998V7.99998C7.2 7.55838 7.5584 7.19998 8 7.19998H8.8C9.2416 7.19998 9.6 6.84158 9.6 6.39998C9.6 5.95838 9.2416 5.59998 8.8 5.59998H7.2C6.316 5.59998 5.6 6.31598 5.6 7.19998V8.79998C5.6 9.24158 5.9584 9.59998 6.4 9.59998ZM4 12C4 11.5584 4.3584 11.2 4.8 11.2H19.2C19.6416 11.2 20 11.5584 20 12C20 12.4416 19.6416 12.8 19.2 12.8H4.8C4.3584 12.8 4 12.4416 4 12Z" fill="white"/>
</svg>
