<svg width="75" height="72" viewBox="0 0 75 72" fill="none" xmlns="http://www.w3.org/2000/svg">
<path fill-rule="evenodd" clip-rule="evenodd" d="M44.4 31.2H41.4304C41.324 31.2 41.2224 31.2424 41.1472 31.3168L40.0264 32.4384C39.8416 32.6232 39.5312 32.5832 39.3984 32.3576C37.6216 29.324 37.8776 29.7616 37.5304 29.168C37.2656 28.716 36.6448 28.6368 36.2744 29.0072L35.8752 29.4056L35.8816 29.4168L34.2152 31.0832C34.14 31.1576 34.0384 31.2 33.932 31.2H31.6V26.4C31.6 25.9584 31.9584 25.6 32.4 25.6H43.6C44.0416 25.6 44.4 25.9584 44.4 26.4V31.2ZM44.4 37.6C44.4 38.0416 44.0416 38.4 43.6 38.4H32.4C31.9584 38.4 31.6 38.0416 31.6 37.6V32.8H34.596C34.7024 32.8 34.804 32.7576 34.8792 32.6832L36.3512 31.2104C36.536 31.0248 36.8464 31.0648 36.9792 31.2912C38.7376 34.2928 38.3872 33.692 38.8344 34.4624C39.0976 34.916 39.7192 34.9976 40.0904 34.6272L41.8088 32.9168C41.8832 32.8416 41.9848 32.8 42.0904 32.8H44.4V37.6ZM44.4 24H31.6C30.716 24 30 24.716 30 25.6V38.4C30 39.2832 30.716 40 31.6 40H44.4C45.284 40 46 39.2832 46 38.4V25.6C46 24.716 45.284 24 44.4 24Z" fill="#A365F4"/>
<circle cx="38" cy="50" r="2" fill="#A365F4"/>
</svg>
