<svg width="20" height="20" viewBox="0 0 20 20" fill="none" xmlns="http://www.w3.org/2000/svg">
<path fill-rule="evenodd" clip-rule="evenodd" d="M12.8334 12.6667H7.16671V8.66668C7.16671 6.88934 8.58337 6.00001 9.99933 6.00001H10.0007C11.4167 6.00001 12.8334 6.88934 12.8334 8.66668V12.6667ZM10.7084 14.6667C10.7084 15.0347 10.391 15.3333 10 15.3333C9.60904 15.3333 9.29171 15.0347 9.29171 14.6667V14H10.7084V14.6667ZM14.9584 12.6667H14.25V8.66668C14.25 6.29801 12.5727 4.98334 10.7084 4.71934V3.33334H9.29171V4.71934C7.42737 4.98334 5.75004 6.29801 5.75004 8.66668V12.6667H5.04171C4.65071 12.6667 4.33337 12.9653 4.33337 13.3333C4.33337 13.7013 4.65071 14 5.04171 14H7.87504V14.6667C7.87504 15.7713 8.82633 16.6667 10 16.6667C11.1737 16.6667 12.125 15.7713 12.125 14.6667V14H14.9584C15.3494 14 15.6667 13.7013 15.6667 13.3333C15.6667 12.9653 15.3494 12.6667 14.9584 12.6667Z" fill="white"/>
</svg>
