<svg width="20" height="20" viewBox="0 0 20 20" fill="none" xmlns="http://www.w3.org/2000/svg">
<path fill-rule="evenodd" clip-rule="evenodd" d="M12 9.33334C12 9.70134 11.7014 10 11.3334 10H8.66671C8.29871 10 8.00004 9.70134 8.00004 9.33334C8.00004 8.96534 8.29871 8.66668 8.66671 8.66668H11.3334C11.7014 8.66668 12 8.96534 12 9.33334ZM8.66671 6.00001H11.3334C11.7014 6.00001 12 6.29868 12 6.66668C12 7.03468 11.7014 7.33334 11.3334 7.33334H8.66671C8.29871 7.33334 8.00004 7.03468 8.00004 6.66668C8.00004 6.29868 8.29871 6.00001 8.66671 6.00001ZM14 6.00001V4.66668C14.7354 4.66668 15.3334 5.26468 15.3334 6.00001H14ZM12.6667 14C12.6667 14.7353 12.0687 15.3333 11.3334 15.3333V14C11.3334 13.2633 10.7367 12.6667 10 12.6667H7.33337V6.00001C7.33337 5.26334 7.93004 4.66668 8.66671 4.66668H12.6667V14ZM10 15.3333H6.00004C5.26471 15.3333 4.66671 14.7353 4.66671 14H9.33337C9.70137 14 10 14.2987 10 14.6667V15.3333ZM14 3.33334H8.66671C7.19404 3.33334 6.00004 4.52734 6.00004 6.00001V12.6667H4.00004C3.63204 12.6667 3.33337 12.9653 3.33337 13.3333V14C3.33337 15.4727 4.52737 16.6667 6.00004 16.6667H11.3334C12.806 16.6667 14 15.4727 14 14V7.33334H16C16.368 7.33334 16.6667 7.03468 16.6667 6.66668V6.00001C16.6667 4.52734 15.4727 3.33334 14 3.33334Z" fill="white"/>
</svg>
