<svg width="24" height="24" viewBox="0 0 24 24" fill="none" xmlns="http://www.w3.org/2000/svg">
<path fill-rule="evenodd" clip-rule="evenodd" d="M18.4 14.2225C18.4 14.6431 18.04 15.0476 17.5984 15.0476H16.8V8.89146C16.8 8.04879 16.0808 7.4286 15.196 7.4286H8.8V6.60346C8.8 6.18289 9.1568 5.90479 9.5984 5.90479H17.5984C18.04 5.90479 18.4 6.18289 18.4 6.60346V14.2225ZM15.2 17.3334C15.2 17.7539 14.8416 18.0953 14.4 18.0953H6.4C5.9584 18.0953 5.6 17.7539 5.6 17.3334V9.71431C5.6 9.29298 5.9584 8.95241 6.4 8.95241H14.4C14.8416 8.95241 15.2 9.29298 15.2 9.71431V17.3334ZM18.396 4.38098H8.8016C7.916 4.38098 7.2 5.00117 7.2 5.84384V7.4286H5.6016C4.716 7.4286 4 8.04879 4 8.89146V18.0297C4 18.8724 4.716 19.6191 5.6016 19.6191H15.196C16.0808 19.6191 16.8 18.8724 16.8 18.0297V16.5715H18.396C19.2808 16.5715 20 15.8248 20 14.9821V5.84384C20 5.00117 19.2808 4.38098 18.396 4.38098Z" fill="white"/>
</svg>
